<?xml version="1.0" encoding="iso-8859-1"?>
<!-- Uploaded to: SVG Repo, www.svgrepo.com, Generator: SVG Repo Mixer Tools -->
<svg xmlns="http://www.w3.org/2000/svg" xmlns:xlink="http://www.w3.org/1999/xlink" version="1.1" id="Capa_1"  viewBox="0 0 470 470" xml:space="preserve" width="512" height="512">
<g>
	<path style="fill:#FD7555;" d="M255,7.5v90c24.853,0,45-20.147,45-45C300,27.647,279.853,7.5,255,7.5z"/>
	<path style="fill:#FDA162;" d="M270,52.5c0-24.853-6.716-45-15-45c-24.853,0-45,20.147-45,45c0,24.853,20.147,45,45,45   C263.284,97.5,270,77.353,270,52.5z"/>
	<path style="fill:#CCECFF;" d="M395,307.5L365,385l30,77.5h40v-115C435,325.409,417.092,307.5,395,307.5z"/>
	<path style="fill:#FFFFFF;" d="M365,307.5l-15.361,30l-15.361-30H175.721l-15.361,30L145,307.5h-30c-22.092,0-40,17.909-40,40v115   h70l55-30l55,30l55-30l55,30h30v-155H365z"/>
	<polygon style="fill:#496A7E;" points="175.721,307.5 145,307.5 145,462.5 255,462.5  "/>
	<polygon style="fill:#3F4C53;" points="334.279,307.5 255,462.5 365,462.5 365,307.5  "/>
	<path style="fill:#FEC8BB;" d="M154.9,172.5c-16.569,0-30,13.432-30,30c0,16.569,13.431,30,30,30H255v-60H154.9z"/>
	<path style="fill:#FE9F88;" d="M355.1,172.5H255v60h100.1c16.569,0,30-13.431,30-30C385.1,185.932,371.669,172.5,355.1,172.5z"/>
	<path style="fill:#FE9F88;" d="M313.637,119.225L255,147.5v160c49.706,0,90-40.294,90-90v-30   C345,160.194,332.837,135.731,313.637,119.225z"/>
	<path style="fill:#FEC8BB;" d="M301.761,131.112l-105.397-11.887C177.163,135.731,165,160.194,165,187.5v30   c0,49.706,40.294,90,90,90c33.137,0,60-40.294,60-90v-30C315,166.151,310.041,146.542,301.761,131.112z"/>
	<path style="fill:#FDA162;" d="M313.637,119.225C297.886,105.686,277.4,97.5,255,97.5s-42.886,8.186-58.636,21.725   C210.101,136.452,231.253,147.5,255,147.5C278.747,147.5,299.899,136.452,313.637,119.225z"/>
	<circle style="fill:#FE9F88;" cx="200" cy="217.5" r="15"/>
	<path style="fill:#FD7555;" d="M315,203.372l-10.379,14.12l9.613,14.392C320.455,230.055,325,224.313,325,217.5   C325,210.972,320.822,205.433,315,203.372z"/>
	<path style="fill:#FE9F88;" d="M315,203.372c-1.566-0.555-3.244-0.872-5-0.872c-8.284,0-15,6.716-15,15c0,8.284,6.716,15,15,15   c1.472,0,2.89-0.221,4.234-0.616C314.736,227.2,315,222.396,315,217.5V203.372z"/>
	<path style="fill:none;stroke:#EF431D;stroke-width:15;stroke-linecap:round;stroke-linejoin:round;stroke-miterlimit:10;" d="   M238.5,232.5c2.412,6.785,8.887,11.645,16.5,11.645c7.613,0,14.088-4.86,16.5-11.645"/>
	<path style="fill:#FEC8BB;" d="M105,392.5c0,22.091,17.909,40,40,40c22.091,0,40-17.909,40-40H105z"/>
	<path d="M154.9,240h5.225c10.185,42.95,48.855,75,94.875,75s84.69-32.05,94.875-75h5.225c20.678,0,37.5-16.822,37.5-37.5   S375.777,165,355.1,165h-5.225c-4.76-20.074-15.741-37.765-30.79-50.917c-0.239-0.253-0.492-0.497-0.772-0.721   c-0.139-0.111-0.284-0.208-0.429-0.308c-9.358-7.917-20.221-14.107-32.096-18.069C298.932,85.434,307.5,69.953,307.5,52.5   C307.5,23.552,283.948,0,255,0c-28.949,0-52.5,23.552-52.5,52.5c0,17.453,8.568,32.934,21.711,42.485   c-11.877,3.963-22.741,10.154-32.1,18.073c-0.142,0.098-0.286,0.194-0.423,0.304c-0.278,0.222-0.529,0.465-0.767,0.716   c-15.051,13.153-26.034,30.846-30.795,50.922H154.9c-20.678,0-37.5,16.822-37.5,37.5S134.223,240,154.9,240z M217.5,52.5   c0-20.678,16.822-37.5,37.5-37.5s37.5,16.822,37.5,37.5S275.678,90,255,90S217.5,73.178,217.5,52.5z M302.689,120.244   C290.079,132.881,273.079,140,255,140c-18.078,0-35.079-7.119-47.688-19.757C220.788,110.66,237.241,105,255,105   C272.759,105,289.212,110.66,302.689,120.244z M154.9,180h2.885c-0.189,2.476-0.286,4.977-0.286,7.5c0,4.143,3.358,7.5,7.5,7.5   s7.5-3.357,7.5-7.5c0-22.333,8.934-42.608,23.398-57.477C211.385,145.983,232.506,155,255,155c22.493,0,43.615-9.017,59.102-24.977   c14.464,14.869,23.398,35.144,23.398,57.477c0,4.143,3.357,7.5,7.5,7.5s7.5-3.357,7.5-7.5c0-2.523-0.096-5.024-0.286-7.5h2.885   c12.406,0,22.5,10.094,22.5,22.5S367.506,225,355.1,225h-2.885c0.189-2.476,0.286-4.977,0.286-7.5c0-4.143-3.357-7.5-7.5-7.5   s-7.5,3.357-7.5,7.5c0,45.49-37.01,82.5-82.5,82.5c-45.491,0-82.5-37.01-82.5-82.5c0-4.143-3.358-7.5-7.5-7.5s-7.5,3.357-7.5,7.5   c0,2.523,0.096,5.024,0.286,7.5H154.9c-12.407,0-22.5-10.094-22.5-22.5S142.494,180,154.9,180z"/>
	<path d="M271.025,331.14L255,341.155l-16.025-10.016c-2.312-1.444-5.226-1.521-7.61-0.199c-2.385,1.321-3.864,3.833-3.864,6.56v25   c0,2.727,1.479,5.238,3.864,6.56c2.385,1.322,5.3,1.246,7.61-0.199L255,358.845l16.025,10.016c1.213,0.758,2.593,1.14,3.975,1.14   c1.251,0,2.503-0.313,3.636-0.94c2.385-1.321,3.864-3.833,3.864-6.56v-25c0-2.727-1.479-5.238-3.864-6.56   C276.252,329.619,273.337,329.696,271.025,331.14z"/>
	<path d="M211.5,195h9.927c1.029,2.913,3.808,5,7.073,5c4.142,0,7.5-3.357,7.5-7.5v-5c0-4.143-3.358-7.5-7.5-7.5h-17   c-4.142,0-7.5,3.357-7.5,7.5S207.358,195,211.5,195z"/>
	<path d="M281.5,200c3.266,0,6.044-2.087,7.073-5h9.927c4.143,0,7.5-3.357,7.5-7.5s-3.357-7.5-7.5-7.5h-17   c-4.143,0-7.5,3.357-7.5,7.5v5C274,196.643,277.357,200,281.5,200z"/>
	<path d="M231.433,235.013c3.537,9.948,13.007,16.632,23.567,16.632s20.03-6.684,23.566-16.632c1.388-3.903-0.651-8.192-4.555-9.579   c-3.899-1.391-8.191,0.651-9.578,4.554c-1.416,3.982-5.207,6.657-9.434,6.657s-8.018-2.675-9.434-6.657   c-1.387-3.903-5.676-5.944-9.579-4.554C232.085,226.82,230.046,231.109,231.433,235.013z"/>
	<path d="M395,300h-60.721c-2.816,0-5.395,1.577-6.677,4.085L255,446.03L231.457,400H255c4.143,0,7.5-3.357,7.5-7.5   s-3.357-7.5-7.5-7.5H35c-4.142,0-7.5,3.357-7.5,7.5s3.358,7.5,7.5,7.5h32.5v62.5c0,4.143,3.358,7.5,7.5,7.5h360   c4.143,0,7.5-3.357,7.5-7.5v-115C442.5,321.309,421.191,300,395,300z M145,425c-15.339,0-28.221-10.685-31.617-25h63.234   C173.221,414.315,160.339,425,145,425z M82.5,400h15.598c3.218,20.196,19.207,36.185,39.402,39.402V455h-55V400z M152.5,455   v-15.598c20.196-3.218,36.184-19.207,39.402-39.402h22.707l28.131,55H152.5z M338.867,315H357.5v140h-90.24L338.867,315z    M427.5,455h-55V315H395c17.921,0,32.5,14.579,32.5,32.5V455z"/>
	<path d="M75,370c4.142,0,7.5-3.357,7.5-7.5v-15c0-17.921,14.58-32.5,32.5-32.5h22.5v47.5c0,4.143,3.358,7.5,7.5,7.5   s7.5-3.357,7.5-7.5V315h18.633l26.042,50.915c1.327,2.595,3.957,4.087,6.683,4.087c1.149,0,2.316-0.266,3.409-0.824   c3.688-1.887,5.148-6.405,3.262-10.093l-28.131-55c-1.282-2.508-3.861-4.085-6.677-4.085H115c-26.191,0-47.5,21.309-47.5,47.5v15   C67.5,366.643,70.858,370,75,370z"/>
</g>















</svg>